<svg xmlns="http://www.w3.org/2000/svg" viewBox="0 0 256 256">
  <defs>
    <mask id="mask">
      <!-- Background -->
      <rect width="256" height="256" rx="48" fill="white"/>
      
      <!-- Centered LinkedIn "in" (cut-out) -->
      <g transform="translate(40,40) scale(7.5)">
        <path fill="black" d="M4.98 3.5C4.98 4.6 4.1 5.5 3 5.5S1.02 4.6 1.02 3.5 1.9 1.5 3 1.5s1.98.9 1.98 2zM.5 8h5v14h-5V8zm7 0h4.8v2h.07c.67-1.27 2.3-2.6 4.73-2.6 5.06 0 6 3.33 6 7.66V22h-5v-6.6c0-1.57-.03-3.6-2.2-3.6-2.2 0-2.54 1.72-2.54 3.5V22h-5V8z"/>
      </g>
    </mask>
  </defs>

  <!-- White rounded square -->
  <rect width="256" height="256" rx="48" fill="white" mask="url(#mask)"/>
</svg>